<svg xmlns="http://www.w3.org/2000/svg" viewBox="0 0 32 32" width="32" height="32">
	<style>
		tspan { white-space:pre }
		.shp0 { fill: #ffffff } 
	</style>
	<g id="Folder 1">
		<path id="Layer" class="shp0" d="M15.4 14.14C15.93 14.68 16.57 15.12 17.27 15.41C17.97 15.71 18.72 15.87 19.48 15.87C20.24 15.88 21 15.73 21.7 15.45C22.41 15.16 23.05 14.74 23.59 14.2L23.65 14.14C23.79 14.05 23.91 13.93 24 13.79C24.1 13.65 24.17 13.5 24.21 13.34C24.25 13.18 24.26 13.01 24.24 12.85C24.22 12.68 24.17 12.52 24.09 12.38C24 12.24 23.88 12.12 23.74 12.03C23.61 11.93 23.46 11.86 23.29 11.82C23.13 11.78 22.97 11.77 22.8 11.79C22.64 11.81 22.48 11.86 22.33 11.93C22.3 11.95 22.27 11.97 22.24 11.99C22.21 12.01 22.19 12.02 22.16 12.05C22.13 12.07 22.11 12.09 22.08 12.11C22.06 12.14 22.04 12.16 22.01 12.19C21.26 12.82 20.69 13.32 19.49 13.32C18.3 13.32 17.73 12.82 16.97 12.19C16.44 11.64 15.81 11.21 15.11 10.91C14.41 10.61 13.65 10.46 12.89 10.45C12.13 10.45 11.38 10.59 10.67 10.88C9.97 11.16 9.33 11.59 8.78 12.12L8.72 12.19C8.58 12.28 8.47 12.4 8.37 12.54C8.28 12.67 8.21 12.82 8.17 12.99C8.13 13.15 8.12 13.31 8.14 13.48C8.15 13.64 8.2 13.8 8.28 13.95C8.37 14.09 8.49 14.21 8.63 14.3C8.77 14.4 8.92 14.46 9.08 14.5C9.24 14.54 9.41 14.56 9.57 14.54C9.74 14.52 9.9 14.47 10.04 14.39C10.07 14.38 10.1 14.36 10.13 14.34C10.16 14.32 10.19 14.3 10.21 14.28C10.24 14.26 10.27 14.24 10.29 14.21C10.31 14.19 10.34 14.17 10.36 14.14C11.12 13.51 11.68 13.01 12.88 13.01C13.12 13 13.36 13.02 13.59 13.07C13.82 13.11 14.05 13.19 14.27 13.29C14.49 13.38 14.69 13.51 14.88 13.65C15.07 13.79 15.25 13.96 15.4 14.14L15.4 14.14Z" />
		<path id="Layer" class="shp0" d="M15.4 20.31C15.93 20.86 16.57 21.29 17.27 21.59C17.97 21.89 18.72 22.04 19.48 22.05C20.24 22.05 21 21.91 21.7 21.62C22.41 21.34 23.05 20.91 23.59 20.38L23.65 20.31C23.76 20.19 23.84 20.04 23.89 19.89C23.94 19.73 23.96 19.57 23.95 19.41C23.94 19.24 23.9 19.08 23.82 18.94C23.75 18.79 23.65 18.66 23.53 18.55C23.43 18.47 23.32 18.4 23.2 18.35C23.08 18.3 22.95 18.27 22.82 18.26C22.69 18.25 22.56 18.25 22.44 18.28C22.31 18.31 22.19 18.36 22.08 18.42C21.32 19.05 20.75 19.56 19.56 19.56C18.36 19.56 17.79 19.05 17.04 18.42C16.5 17.88 15.87 17.45 15.17 17.15C14.47 16.85 13.72 16.7 12.96 16.69C12.19 16.68 11.44 16.83 10.73 17.12C10.03 17.4 9.39 17.83 8.85 18.36L8.78 18.42C8.51 18.62 8.3 18.9 8.22 19.22C8.14 19.54 8.19 19.89 8.37 20.17C8.54 20.46 8.82 20.67 9.14 20.75C9.46 20.83 9.81 20.78 10.09 20.61C10.14 20.61 10.17 20.6 10.19 20.58C10.22 20.56 10.25 20.54 10.28 20.52C10.3 20.5 10.33 20.47 10.35 20.45C10.38 20.43 10.4 20.4 10.42 20.38C11.18 19.75 11.75 19.24 12.94 19.24C13.17 19.23 13.41 19.25 13.63 19.29C13.86 19.33 14.08 19.4 14.3 19.49C14.51 19.58 14.71 19.7 14.9 19.84C15.08 19.98 15.25 20.14 15.4 20.31Z" />
		<path id="Layer" fill-rule="evenodd" class="shp0" d="M16.22 32.16C14.13 32.16 12.07 31.74 10.14 30.95C8.22 30.15 6.47 28.98 5 27.5C3.52 26.03 2.35 24.28 1.55 22.36C0.76 20.43 0.34 18.37 0.34 16.28C0.33 9.84 4.2 4.03 10.15 1.56C16.09 -0.91 22.94 0.45 27.5 5C32.05 9.56 33.41 16.41 30.94 22.35C28.47 28.3 22.66 32.17 16.22 32.16ZM16.22 29.7C17.98 29.69 19.72 29.34 21.35 28.67C22.97 27.99 24.45 27 25.69 25.76C26.94 24.51 27.93 23.03 28.6 21.41C29.28 19.78 29.63 18.04 29.64 16.28C29.64 10.85 26.37 5.96 21.35 3.88C16.34 1.81 10.57 2.95 6.73 6.79C2.89 10.63 1.74 16.4 3.82 21.42C5.9 26.43 10.79 29.7 16.22 29.7Z" />
	</g>
</svg>
