<svg id="Layer_7" data-name="Layer 7" xmlns="http://www.w3.org/2000/svg" viewBox="0 0 327.98 50.48"><defs><style>.cls-1{fill:#fff;}</style></defs><path class="cls-1" d="M75.22,43V14.47H63.88v-5H93v5H81.57V43Z" transform="translate(-2 -2.41)"/><path class="cls-1" d="M108.75,19l0,5.35a9,9,0,0,0-3.23-.61,6.22,6.22,0,0,0-4.76,1.74,6.47,6.47,0,0,0-1.64,4.61V43H93v-17a52.08,52.08,0,0,0-.39-6.73h5.72l.49,4.19a7.06,7.06,0,0,1,2.93-3.53,8.57,8.57,0,0,1,4.54-1.22A7.16,7.16,0,0,1,108.75,19Z" transform="translate(-2 -2.41)"/><path class="cls-1" d="M134.65,19.21V43h-6V39.28a7.81,7.81,0,0,1-3.13,3,9.44,9.44,0,0,1-4.49,1q-9,0-9-9.78V19.21h6.06V33.6a5.56,5.56,0,0,0,1.1,3.8,4.35,4.35,0,0,0,3.4,1.23,5.66,5.66,0,0,0,4.3-1.7,6.23,6.23,0,0,0,1.62-4.51V19.21Z" transform="translate(-2 -2.41)"/><path class="cls-1" d="M148.54,41.28a13.55,13.55,0,0,1-5.36-5.92,20.93,20.93,0,0,1-1.88-9.19A20.59,20.59,0,0,1,143.18,17a13.66,13.66,0,0,1,5.36-5.88,16,16,0,0,1,8.26-2q7.33,0,11.83,4.51l-1,1.65A17.77,17.77,0,0,0,162.49,12a15.8,15.8,0,0,0-5.74-1q-6.31,0-9.8,4t-3.5,11.16q0,7.24,3.47,11.23t9.83,4a15.59,15.59,0,0,0,5.74-1,17.94,17.94,0,0,0,5.11-3.24l1,1.64q-4.5,4.52-11.83,4.52A16,16,0,0,1,148.54,41.28Z" transform="translate(-2 -2.41)"/><path class="cls-1" d="M195.12,19.45V43h-2.05v-4.7a7.88,7.88,0,0,1-3.3,3.74,10.42,10.42,0,0,1-5.31,1.29,10.9,10.9,0,0,1-5.74-1.48,9.8,9.8,0,0,1-3.81-4.23,14.38,14.38,0,0,1-1.35-6.42,14.43,14.43,0,0,1,1.37-6.44,10.29,10.29,0,0,1,3.84-4.3,10.64,10.64,0,0,1,5.69-1.52,10.51,10.51,0,0,1,5.31,1.27,7.72,7.72,0,0,1,3.3,3.71V19.45Zm-4.3,19.2q2.25-2.7,2.25-7.59t-2.25-7.59a8.9,8.9,0,0,0-12.76.07c-1.53,1.82-2.3,4.35-2.3,7.61s.78,5.74,2.32,7.52a8,8,0,0,0,6.43,2.68A7.76,7.76,0,0,0,190.82,38.65Z" transform="translate(-2 -2.41)"/><path class="cls-1" d="M223.61,8.36V43h-2.05v-4.7a7.83,7.83,0,0,1-3.3,3.74,10.38,10.38,0,0,1-5.3,1.29,10.62,10.62,0,0,1-5.7-1.53,10.27,10.27,0,0,1-3.83-4.32A14.46,14.46,0,0,1,202.06,31a14.38,14.38,0,0,1,1.34-6.36,9.77,9.77,0,0,1,3.82-4.23A10.9,10.9,0,0,1,213,18.89a10.48,10.48,0,0,1,5.3,1.27,7.67,7.67,0,0,1,3.3,3.71V8.36Zm-4.3,30.29q2.25-2.7,2.25-7.59t-2.25-7.57a7.79,7.79,0,0,0-6.3-2.68,8.1,8.1,0,0,0-6.43,2.66q-2.33,2.66-2.32,7.49t2.32,7.64A7.88,7.88,0,0,0,213,41.35,7.8,7.8,0,0,0,219.31,38.65Z" transform="translate(-2 -2.41)"/><path class="cls-1" d="M232.85,30.68v.43q0,4.94,2.42,7.59a8.9,8.9,0,0,0,6.92,2.65,12.41,12.41,0,0,0,4.3-.73,13.56,13.56,0,0,0,4-2.32l1,1.69a11.41,11.41,0,0,1-4,2.4,15,15,0,0,1-5.1.89A11.41,11.41,0,0,1,233.71,40q-3.15-3.26-3.15-8.93a13.93,13.93,0,0,1,1.41-6.4,10.5,10.5,0,0,1,4-4.3,11.36,11.36,0,0,1,5.89-1.52,9.35,9.35,0,0,1,7.35,3q2.67,3,2.67,8.27v.56Zm3.06-7.87a9.82,9.82,0,0,0-2.91,6h16.81a9.24,9.24,0,0,0-2.34-6,7.53,7.53,0,0,0-5.62-2.09A8.44,8.44,0,0,0,235.91,22.81Z" transform="translate(-2 -2.41)"/><path class="cls-1" d="M278.07,27.82V43H276V28q0-3.75-1.59-5.5c-1.05-1.15-2.74-1.73-5.05-1.73a8.67,8.67,0,0,0-6.33,2.3,8.24,8.24,0,0,0-2.37,6.2V43h-2v-17a47.83,47.83,0,0,0-.39-6.49h2l.35,4.47a7.48,7.48,0,0,1,3.32-3.74,10.59,10.59,0,0,1,5.28-1.29Q278.07,18.89,278.07,27.82Z" transform="translate(-2 -2.41)"/><path class="cls-1" d="M290.16,41.78a10.34,10.34,0,0,1-3.91-4.26,13.87,13.87,0,0,1-1.39-6.37,14.16,14.16,0,0,1,1.39-6.41,10.22,10.22,0,0,1,3.94-4.33,11.3,11.3,0,0,1,5.91-1.52,13,13,0,0,1,4.65.84A10.46,10.46,0,0,1,304.41,22l-1,1.69a16.19,16.19,0,0,0-3.71-2.26,9.41,9.41,0,0,0-3.62-.7,8.3,8.3,0,0,0-6.62,2.79,11.31,11.31,0,0,0-2.42,7.64q0,4.8,2.4,7.47a8.36,8.36,0,0,0,6.59,2.68,9.82,9.82,0,0,0,3.65-.68,15.51,15.51,0,0,0,3.73-2.23l1,1.64a10.81,10.81,0,0,1-3.79,2.35,12.59,12.59,0,0,1-4.57.85A11.31,11.31,0,0,1,290.16,41.78Z" transform="translate(-2 -2.41)"/><path class="cls-1" d="M311,30.68v.43q0,4.94,2.42,7.59a8.9,8.9,0,0,0,6.92,2.65,12.41,12.41,0,0,0,4.3-.73,13.69,13.69,0,0,0,4-2.32l1,1.69a11.41,11.41,0,0,1-4,2.4,15,15,0,0,1-5.1.89A11.41,11.41,0,0,1,311.82,40q-3.15-3.26-3.15-8.93a13.93,13.93,0,0,1,1.41-6.4,10.5,10.5,0,0,1,4-4.3A11.36,11.36,0,0,1,320,18.89a9.36,9.36,0,0,1,7.35,3q2.67,3,2.67,8.27v.56ZM314,22.81a9.82,9.82,0,0,0-2.91,6h16.81a9.24,9.24,0,0,0-2.34-6A7.55,7.55,0,0,0,320,20.67,8.42,8.42,0,0,0,314,22.81Z" transform="translate(-2 -2.41)"/><path class="cls-1" d="M26,24.25a9.16,9.16,0,0,0,13,.14l.14-.14A2,2,0,1,0,37,20.84a2.09,2.09,0,0,0-.48.41c-1.21,1-2.08,1.79-4,1.79s-2.77-.75-4-1.79a9.16,9.16,0,0,0-12.95-.14l-.14.14a2,2,0,0,0,2.09,3.41,2.09,2.09,0,0,0,.48-.41c1.21-1,2.08-1.79,4-1.79A5.27,5.27,0,0,1,26,24.25Z" transform="translate(-2 -2.41)"/><path class="cls-1" d="M26,34.08a9.16,9.16,0,0,0,13,.14l.14-.14a2,2,0,0,0-2.57-3c-1.21,1-2.08,1.79-4,1.79s-2.77-.75-4-1.79a9.19,9.19,0,0,0-13-.09l-.09.09a2,2,0,0,0,2.09,3.41,2.09,2.09,0,0,0,.48-.41c1.21-1,2.08-1.79,4-1.79A5.37,5.37,0,0,1,26,34.08Z" transform="translate(-2 -2.41)"/><path class="cls-1" d="M27.24,52.89A25.24,25.24,0,1,0,2,27.65H2A25.21,25.21,0,0,0,27.19,52.89Zm0-3.94A21.29,21.29,0,1,1,48.53,27.66,21.29,21.29,0,0,1,27.24,49Z" transform="translate(-2 -2.41)"/></svg>
